#tb 0: 1/25
0,          0,          0,        1,   599040, 0x9a8664e6
0,          1,          1,        1,   599040, 0x72f15982
0,          2,          2,        1,   599040, 0xc6610a7b
0,          3,          3,        1,   599040, 0x091d3a93
